<svg version="1" xmlns="http://www.w3.org/2000/svg" width="1544" height="1544" viewBox="0 0 1158.000000 1158.000000"><path d="M540.6 2.1C286.2 19.3 73 200.8 15.6 449.2 2.1 507.3-2.7 574.6 2.5 629.7c15.9 166.6 99.9 315.7 233.5 414.5 102.9 76.1 227.1 115.4 355.5 112.5 48.4-1.1 88.5-6.6 133.2-18.2 83.2-21.6 159-60.8 226.8-117.1 16.4-13.6 54.9-51.9 68.7-68.4 60.4-72 98.9-148.1 121.7-240.3 12.3-49.6 15.1-68.2 15.8-105.2 1.6-77.4-7.4-142.7-28.4-207-23.4-71.6-58.1-134.3-107.3-193.6-13.6-16.2-54-56.6-70.5-70.3C854.4 55.9 741.6 10.7 616 2c-16.6-1.1-57.9-1.1-75.4.1zM351.1 110.5c63.7 11.1 90.7 71.2 62.4 138.5-9 21.2-22.1 40.4-40.5 59.4-19.6 20.1-38.3 33.8-62.5 45.6-26.1 12.8-45.6 17.9-71.7 18.7-18.7.6-28.7-.5-41.3-4.4-50.9-16.1-72.5-65.6-53.6-123.2 9.1-27.6 25-52 49.2-75.6 32.9-32 69.3-51.5 110.5-58.9 10.7-1.9 36.9-2 47.5-.1zm391 276.5c24 4.9 44.4 15.7 62.5 33.2 25.2 24.4 38.4 55.2 38.4 90.1 0 22.2-4.1 39.4-14 58.6-18 34.9-52 59.9-90.8 66.6-10.9 1.9-31.6 1.9-42.6 0-45.7-8-84.1-40.8-98.6-84.3-4.8-14.6-6.4-24.3-6.4-39.7-.1-15.7 1.3-24.7 5.6-38.5 13.4-42.3 47-73.8 90.7-85 17.3-4.4 36.7-4.7 55.2-1zM532.5 599.7c8.9 19.2 20.3 35.7 35.9 52 18 18.8 34.1 30.6 57.1 41.9 46.2 22.7 98.8 26.4 147.6 10.4 41.6-13.7 79.2-42 103.8-78.3 2.4-3.5 3.8-4.7 5.7-4.7 3 0 29.2 5.7 50.9 11.1 52.3 13.1 103.5 29.3 165.5 52.5 29 10.9 29 10.9 29 13.8 0 4.6-8.4 35.8-14.9 55.4-13.6 40.7-33.4 83.4-51.7 111.4-39.7 60.8-52.9 77.5-90 113.8-93.3 91.3-212.8 145.9-344.4 157.5-20.3 1.7-66.4 2-87.5.5-146.7-10.7-282.7-77.4-380.5-186.6-54.3-60.6-94.4-131.3-118.4-208.6-5.1-16.4-11.9-42.8-11.3-43.5.7-.7 21.9-8.6 47.2-17.8 71.1-25.6 152.3-48.9 216.5-62 63.3-12.9 131.1-21.8 193.5-25.5 9.9-.6 20.3-1.2 23-1.3 2.8-.2 8.2-.4 12-.5l7-.1 4 8.6z"/><path d="M696 415.9c-31.7 7-58.3 29.8-69.9 60.1-8.5 22-8.2 50.6.8 72 6.3 15.2 18 30.3 31.1 40.2 8.4 6.4 24.4 14.3 34.5 17 11.8 3.1 35.4 3.1 48 0 27-6.7 51.2-26.4 63.5-51.7 7.7-15.7 9.4-23.8 9.4-43-.1-19.2-1.7-26.7-9.3-42-13-26.3-34.9-44.4-63.1-52-10-2.7-34.1-3-45-.6zm42.5 8.1c8.7 2.2 21.9 8.1 28.9 12.9 38.5 26.5 50.3 79.4 26.6 119.1-21.9 36.8-65.9 53.1-106.1 39.5-34.2-11.7-58.2-43.3-60.5-80-1.5-22.8 7.6-47.9 23.4-64.7 15.1-16 32.9-25.6 53.2-28.7 9.1-1.4 25-.5 34.5 1.9z"/></svg>